<svg xmlns="http://www.w3.org/2000/svg" width="1200" height="630" viewBox="0 0 1200 630"><defs><linearGradient id="bg" x1="0" y1="0" x2="1" y2="1"><stop stop-color="#070b18"/><stop offset="1" stop-color="#171338"/></linearGradient><linearGradient id="accent"><stop stop-color="#4de8e0"/><stop offset="1" stop-color="#8c62ff"/></linearGradient><filter id="glow"><feGaussianBlur stdDeviation="8" result="b"/><feMerge><feMergeNode in="b"/><feMergeNode in="SourceGraphic"/></feMerge></filter></defs><rect width="1200" height="630" rx="32" fill="url(#bg)"/><circle cx="1050" cy="80" r="220" fill="#7544d8" opacity=".12"/><circle cx="80" cy="560" r="200" fill="#20b9b1" opacity=".1"/><text x="70" y="84" fill="#4de8e0" font-family="Arial" font-size="18" font-weight="700" letter-spacing="4">CASCADE CIRCUIT</text><text x="70" y="135" fill="#fff" font-family="Arial" font-size="40" font-weight="700">Architecture &amp; premium flow</text><g font-family="Arial"><rect x="70" y="205" width="250" height="250" rx="24" fill="#111a31" stroke="#33415f"/><text x="100" y="250" fill="#fff" font-size="22" font-weight="700">Browser</text><text x="100" y="285" fill="#8f9bb3" font-size="16">React + Vite</text><text x="100" y="315" fill="#8f9bb3" font-size="16">Game engine</text><text x="100" y="345" fill="#8f9bb3" font-size="16">Local free quota</text><g transform="translate(95 370)"><circle cx="20" cy="20" r="18" fill="#4de8e0"/><circle cx="65" cy="20" r="18" fill="#617cff"/><circle cx="110" cy="20" r="18" fill="#8c62ff"/><circle cx="155" cy="20" r="18" fill="#ef5ba1"/></g><rect x="475" y="205" width="250" height="250" rx="24" fill="#111a31" stroke="#33415f"/><text x="505" y="250" fill="#fff" font-size="22" font-weight="700">Cloudflare</text><text x="505" y="285" fill="#8f9bb3" font-size="16">Pages hosting</text><text x="505" y="315" fill="#8f9bb3" font-size="16">Pages Functions API</text><text x="505" y="345" fill="#8f9bb3" font-size="16">Signed entitlement cookie</text><path d="M515 395h165" stroke="url(#accent)" stroke-width="10" stroke-linecap="round" filter="url(#glow)"/><rect x="880" y="205" width="250" height="250" rx="24" fill="#111a31" stroke="#33415f"/><text x="910" y="250" fill="#fff" font-size="22" font-weight="700">Stripe</text><text x="910" y="285" fill="#8f9bb3" font-size="16">Hosted Checkout</text><text x="910" y="315" fill="#8f9bb3" font-size="16">Cards / wallets</text><text x="910" y="345" fill="#8f9bb3" font-size="16">Subscription status</text><rect x="915" y="375" width="180" height="50" rx="12" fill="#635bff"/><text x="1005" y="407" text-anchor="middle" fill="#fff" font-size="20" font-weight="700">stripe</text><path d="M330 330h125" stroke="#4de8e0" stroke-width="3" stroke-dasharray="9 8"/><path d="M445 320l18 10-18 10" fill="#4de8e0"/><path d="M735 330h125" stroke="#8c62ff" stroke-width="3" stroke-dasharray="9 8"/><path d="M850 320l18 10-18 10" fill="#8c62ff"/><text x="392" y="310" text-anchor="middle" fill="#73809b" font-size="13">/api/*</text><text x="798" y="310" text-anchor="middle" fill="#73809b" font-size="13">Checkout API</text><rect x="70" y="505" width="1060" height="70" rx="18" fill="#0d1428" stroke="#27334e"/><text x="100" y="548" fill="#9ba8c1" font-size="16">GitHub Actions</text><path d="M250 540h570" stroke="#31405d" stroke-width="2"/><circle cx="350" cy="540" r="8" fill="#4de8e0"/><circle cx="510" cy="540" r="8" fill="#5f94ff"/><circle cx="670" cy="540" r="8" fill="#8c62ff"/><text x="855" y="546" fill="#fff" font-size="16" font-weight="700">typecheck → test → build → artifact</text></g></svg>
